HIERARCHY
ROOT mixamorig10:Hips
{
	OFFSET 0.000000 96.295143 0.000000
	CHANNELS 6 Xposition Yposition Zposition Xrotation Yrotation Zrotation
	JOINT mixamorig10:Spine
	{
		OFFSET 0.000000 10.067902 -1.090600
		CHANNELS 3 Xrotation Yrotation Zrotation
		JOINT mixamorig10:Spine1
		{
			OFFSET 0.000000 11.745880 -1.272423
			CHANNELS 3 Xrotation Yrotation Zrotation
			JOINT mixamorig10:Spine2
			{
				OFFSET 0.000000 13.423866 -1.454198
				CHANNELS 3 Xrotation Yrotation Zrotation
				JOINT mixamorig10:Neck
				{
					OFFSET 0.000000 15.101944 -1.635983
					CHANNELS 3 Xrotation Yrotation Zrotation
					JOINT mixamorig10:Head
					{
						OFFSET 0.000000 7.807297 2.258500
						CHANNELS 3 Xrotation Yrotation Zrotation
						JOINT mixamorig10:HeadTop_End
						{
							OFFSET 0.000000 21.619797 6.254200
							CHANNELS 3 Xrotation Yrotation Zrotation
							End Site
							{
								OFFSET 0.000000 22.506241 0.000000
							}
						}
					}
				}
				JOINT mixamorig10:LeftShoulder
				{
					OFFSET 7.096500 13.710800 -1.625296
					CHANNELS 3 Xrotation Yrotation Zrotation
					JOINT mixamorig10:LeftArm
					{
						OFFSET 14.342337 -2.708740 0.021386
						CHANNELS 3 Xrotation Yrotation Zrotation
						JOINT mixamorig10:LeftForeArm
						{
							OFFSET 26.107496 0.000000 0.000000
							CHANNELS 3 Xrotation Yrotation Zrotation
							JOINT mixamorig10:LeftHand
							{
								OFFSET 21.122604 0.000000 0.000000
								CHANNELS 3 Xrotation Yrotation Zrotation
								JOINT mixamorig10:LeftHandThumb1
								{
									OFFSET 3.773628 -1.309113 2.613102
									CHANNELS 3 Xrotation Yrotation Zrotation
									JOINT mixamorig10:LeftHandThumb2
									{
										OFFSET 2.957748 -1.707657 1.707656
										CHANNELS 3 Xrotation Yrotation Zrotation
										JOINT mixamorig10:LeftHandThumb3
										{
											OFFSET 2.617554 -1.511246 1.511245
											CHANNELS 3 Xrotation Yrotation Zrotation
											JOINT mixamorig10:LeftHandThumb4
											{
												OFFSET 2.129951 -1.229736 1.229729
												CHANNELS 3 Xrotation Yrotation Zrotation
												End Site
												{
													OFFSET 1.787674 -1.161758 1.736580
												}
											}
										}
									}
								}
								JOINT mixamorig10:LeftHandIndex1
								{
									OFFSET 10.921371 -0.285767 2.524735
									CHANNELS 3 Xrotation Yrotation Zrotation
									JOINT mixamorig10:LeftHandIndex2
									{
										OFFSET 3.342293 0.000000 0.000000
										CHANNELS 3 Xrotation Yrotation Zrotation
										JOINT mixamorig10:LeftHandIndex3
										{
											OFFSET 3.075104 0.000000 0.000000
											CHANNELS 3 Xrotation Yrotation Zrotation
											JOINT mixamorig10:LeftHandIndex4
											{
												OFFSET 2.704681 0.000000 0.000000
												CHANNELS 3 Xrotation Yrotation Zrotation
												End Site
												{
													OFFSET 2.704605 -0.000458 -0.020695
												}
											}
										}
									}
								}
								JOINT mixamorig10:LeftHandMiddle1
								{
									OFFSET 10.917091 0.000000 0.000000
									CHANNELS 3 Xrotation Yrotation Zrotation
									JOINT mixamorig10:LeftHandMiddle2
									{
										OFFSET 3.460953 0.000000 0.000000
										CHANNELS 3 Xrotation Yrotation Zrotation
										JOINT mixamorig10:LeftHandMiddle3
										{
											OFFSET 3.398254 0.000000 0.000000
											CHANNELS 3 Xrotation Yrotation Zrotation
											JOINT mixamorig10:LeftHandMiddle4
											{
												OFFSET 3.084198 0.000000 0.000000
												CHANNELS 3 Xrotation Yrotation Zrotation
												End Site
												{
													OFFSET 3.084198 0.000000 0.000100
												}
											}
										}
									}
								}
								JOINT mixamorig10:LeftHandRing1
								{
									OFFSET 11.033119 -0.035538 -2.257836
									CHANNELS 3 Xrotation Yrotation Zrotation
									JOINT mixamorig10:LeftHandRing2
									{
										OFFSET 2.872101 0.000000 0.000000
										CHANNELS 3 Xrotation Yrotation Zrotation
										JOINT mixamorig10:LeftHandRing3
										{
											OFFSET 2.704407 0.000000 0.000000
											CHANNELS 3 Xrotation Yrotation Zrotation
											JOINT mixamorig10:LeftHandRing4
											{
												OFFSET 2.336807 0.000000 0.000000
												CHANNELS 3 Xrotation Yrotation Zrotation
												End Site
												{
													OFFSET 2.336807 0.000122 0.004298
												}
											}
										}
									}
								}
								JOINT mixamorig10:LeftHandPinky1
								{
									OFFSET 9.710411 -0.277008 -4.352313
									CHANNELS 3 Xrotation Yrotation Zrotation
									JOINT mixamorig10:LeftHandPinky2
									{
										OFFSET 2.713760 0.000000 0.000000
										CHANNELS 3 Xrotation Yrotation Zrotation
										JOINT mixamorig10:LeftHandPinky3
										{
											OFFSET 2.227509 0.000000 0.000000
											CHANNELS 3 Xrotation Yrotation Zrotation
											JOINT mixamorig10:LeftHandPinky4
											{
												OFFSET 1.887939 0.000000 0.000000
												CHANNELS 3 Xrotation Yrotation Zrotation
												End Site
												{
													OFFSET 1.887901 -0.000336 -0.011795
												}
											}
										}
									}
								}
							}
						}
					}
				}
				JOINT mixamorig10:RightShoulder
				{
					OFFSET -7.096500 13.710800 -1.646719
					CHANNELS 3 Xrotation Yrotation Zrotation
					JOINT mixamorig10:RightArm
					{
						OFFSET -14.342340 -2.708725 -0.021382
						CHANNELS 3 Xrotation Yrotation Zrotation
						JOINT mixamorig10:RightForeArm
						{
							OFFSET -26.105303 0.000000 -0.000001
							CHANNELS 3 Xrotation Yrotation Zrotation
							JOINT mixamorig10:RightHand
							{
								OFFSET -21.123505 0.000000 -0.000000
								CHANNELS 3 Xrotation Yrotation Zrotation
								JOINT mixamorig10:RightHandThumb1
								{
									OFFSET -3.801468 -1.382233 2.623294
									CHANNELS 3 Xrotation Yrotation Zrotation
									JOINT mixamorig10:RightHandThumb2
									{
										OFFSET -2.987579 -1.724884 1.724880
										CHANNELS 3 Xrotation Yrotation Zrotation
										JOINT mixamorig10:RightHandThumb3
										{
											OFFSET -2.656494 -1.533722 1.533729
											CHANNELS 3 Xrotation Yrotation Zrotation
											JOINT mixamorig10:RightHandThumb4
											{
												OFFSET -2.122322 -1.225327 1.225322
												CHANNELS 3 Xrotation Yrotation Zrotation
												End Site
												{
													OFFSET -1.870781 -1.184326 1.613871
												}
											}
										}
									}
								}
								JOINT mixamorig10:RightHandIndex1
								{
									OFFSET -10.965469 -0.351395 2.517516
									CHANNELS 3 Xrotation Yrotation Zrotation
									JOINT mixamorig10:RightHandIndex2
									{
										OFFSET -3.277534 0.000000 0.000000
										CHANNELS 3 Xrotation Yrotation Zrotation
										JOINT mixamorig10:RightHandIndex3
										{
											OFFSET -3.135506 0.000000 0.000000
											CHANNELS 3 Xrotation Yrotation Zrotation
											JOINT mixamorig10:RightHandIndex4
											{
												OFFSET -2.691025 0.000000 0.000000
												CHANNELS 3 Xrotation Yrotation Zrotation
												End Site
												{
													OFFSET -2.691002 -0.000107 -0.011300
												}
											}
										}
									}
								}
								JOINT mixamorig10:RightHandMiddle1
								{
									OFFSET -11.192451 0.000000 -0.000000
									CHANNELS 3 Xrotation Yrotation Zrotation
									JOINT mixamorig10:RightHandMiddle2
									{
										OFFSET -3.472412 0.000000 0.000000
										CHANNELS 3 Xrotation Yrotation Zrotation
										JOINT mixamorig10:RightHandMiddle3
										{
											OFFSET -3.267532 0.000000 0.000000
											CHANNELS 3 Xrotation Yrotation Zrotation
											JOINT mixamorig10:RightHandMiddle4
											{
												OFFSET -2.878006 0.000000 0.000000
												CHANNELS 3 Xrotation Yrotation Zrotation
												End Site
												{
													OFFSET -2.877998 0.000061 0.006000
												}
											}
										}
									}
								}
								JOINT mixamorig10:RightHandRing1
								{
									OFFSET -10.815025 -0.118790 -2.175731
									CHANNELS 3 Xrotation Yrotation Zrotation
									JOINT mixamorig10:RightHandRing2
									{
										OFFSET -2.926300 0.000000 0.000000
										CHANNELS 3 Xrotation Yrotation Zrotation
										JOINT mixamorig10:RightHandRing3
										{
											OFFSET -2.814911 0.000000 0.000000
											CHANNELS 3 Xrotation Yrotation Zrotation
											JOINT mixamorig10:RightHandRing4
											{
												OFFSET -2.494705 0.000000 0.000000
												CHANNELS 3 Xrotation Yrotation Zrotation
												End Site
												{
													OFFSET -2.494698 0.000107 0.005699
												}
											}
										}
									}
								}
								JOINT mixamorig10:RightHandPinky1
								{
									OFFSET -9.608459 -0.305069 -4.345866
									CHANNELS 3 Xrotation Yrotation Zrotation
									JOINT mixamorig10:RightHandPinky2
									{
										OFFSET -2.717850 0.000000 0.000000
										CHANNELS 3 Xrotation Yrotation Zrotation
										JOINT mixamorig10:RightHandPinky3
										{
											OFFSET -2.294006 0.000000 0.000000
											CHANNELS 3 Xrotation Yrotation Zrotation
											JOINT mixamorig10:RightHandPinky4
											{
												OFFSET -1.957932 0.000000 0.000000
												CHANNELS 3 Xrotation Yrotation Zrotation
												End Site
												{
													OFFSET -1.957901 -0.000137 -0.010399
												}
											}
										}
									}
								}
							}
						}
					}
				}
			}
		}
	}
	JOINT mixamorig10:LeftUpLeg
	{
		OFFSET 8.712000 -5.586098 -0.097500
		CHANNELS 3 Xrotation Yrotation Zrotation
		JOINT mixamorig10:LeftLeg
		{
			OFFSET 0.818693 -40.485188 -3.430391
			CHANNELS 3 Xrotation Yrotation Zrotation
			JOINT mixamorig10:LeftFoot
			{
				OFFSET -0.818688 -37.669312 -2.944613
				CHANNELS 3 Xrotation Yrotation Zrotation
				JOINT mixamorig10:LeftToeBase
				{
					OFFSET 1.471696 -10.315093 14.016142
					CHANNELS 3 Xrotation Yrotation Zrotation
					JOINT mixamorig10:LeftToe_End
					{
						OFFSET 0.357836 0.325081 6.821591
						CHANNELS 3 Xrotation Yrotation Zrotation
						End Site
						{
							OFFSET 0.357836 0.325081 6.821590
						}
					}
				}
			}
		}
	}
	JOINT mixamorig10:RightUpLeg
	{
		OFFSET -8.712000 -5.586098 -0.274400
		CHANNELS 3 Xrotation Yrotation Zrotation
		JOINT mixamorig10:RightLeg
		{
			OFFSET -0.818686 -40.485229 -3.209567
			CHANNELS 3 Xrotation Yrotation Zrotation
			JOINT mixamorig10:RightFoot
			{
				OFFSET 0.818683 -37.669243 -2.964876
				CHANNELS 3 Xrotation Yrotation Zrotation
				JOINT mixamorig10:RightToeBase
				{
					OFFSET -1.471738 -10.315439 14.489844
					CHANNELS 3 Xrotation Yrotation Zrotation
					JOINT mixamorig10:RightToe_End
					{
						OFFSET -0.357861 0.324883 7.205909
						CHANNELS 3 Xrotation Yrotation Zrotation
						End Site
						{
							OFFSET -0.357861 0.324883 7.205910
						}
					}
				}
			}
		}
	}
}
MOTION
Frames: 4
Frame Time: 0.033333
-27.535950 63.639381 12.081498 -7.243302 -0.935004 -5.818112 11.195658 0.116568 8.050472 1.765358 -0.049069 0.730893 1.767269 -0.055055 0.727112 2.321279 0.425272 1.748422 2.321284 0.425271 1.748423 -0.000000 -0.000000 -0.000001 0.452905 -1.159507 -2.831265 -13.684236 -11.862162 -73.654936 -0.000009 -57.214282 -0.000015 37.205191 -5.693439 39.465151 0.639144 6.886938 -1.316827 9.215914 26.452884 -3.274826 -2.689852 -6.358794 3.958961 0.000002 0.000001 0.000002 -0.548649 -0.660361 -17.764837 1.195545 3.882483 -34.219309 0.001187 -0.127803 1.059106 0.000001 -0.000002 -0.000001 0.057726 0.908856 -9.010115 0.948902 3.493197 -30.386296 0.044003 0.778852 -6.467914 -0.000000 -0.000001 0.000001 0.511485 2.985018 -13.068854 0.308943 2.043195 -17.194755 0.157001 1.464906 -12.234172 0.000002 0.000001 -0.000002 0.115373 5.979135 -0.754480 0.390709 -1.773228 -19.785692 0.001703 0.153116 -1.268749 0.000000 0.000000 -0.000000 0.408704 -6.141886 6.698625 -14.383144 21.251768 71.402046 0.000059 69.242689 -0.000063 42.483780 -11.277124 -28.176325 2.973874 -10.476292 -7.038234 18.071159 -9.076688 6.138678 -8.363893 3.326065 -4.267711 -0.000001 0.000001 -0.000001 0.782316 -3.322862 35.303656 0.276172 -1.943867 16.170481 0.000541 -0.086873 0.712802 -0.000000 -0.000001 0.000001 1.771974 -5.149876 26.866450 0.160847 -1.489883 12.323003 0.078481 -1.043929 8.599370 -0.000003 0.000002 -0.000003 2.138870 -6.114137 24.912948 0.100061 -1.177810 9.712388 0.122519 -1.302139 10.749799 0.000002 -0.000001 0.000000 0.849060 -3.961947 15.717358 0.082479 -1.069991 8.815636 0.034726 -0.695546 5.717142 -0.000003 -0.000001 0.000001 -77.405550 -7.427929 9.505666 79.903139 -1.897617 1.807760 4.092896 -0.216986 -4.565657 -2.821820 -0.000003 0.000004 0.000000 0.000001 0.000001 -75.324945 -6.807755 -11.725117 80.628238 -2.994894 2.134836 -0.387409 0.325571 -1.805170 0.820796 -0.000000 0.000002 -0.000000 0.000000 0.000000 
-27.556652 63.630104 12.065378 -7.423035 -0.960805 -5.717192 11.159025 0.132216 8.037511 1.767712 -0.045078 0.731738 1.769631 -0.051049 0.727972 2.352205 0.429414 1.708421 2.352205 0.429413 1.708420 -0.000001 -0.000000 -0.000000 0.455870 -1.206536 -2.848525 -13.585601 -11.870894 -73.585385 -0.000043 -57.359027 -0.000039 37.091865 -5.597999 39.410106 0.675980 6.938741 -1.262560 9.239442 26.511733 -3.291154 -2.677266 -6.310219 3.951257 -0.000002 -0.000004 0.000000 -0.542649 -0.627770 -17.846103 1.201039 3.890538 -34.300281 0.001168 -0.126926 1.051843 0.000002 -0.000001 -0.000000 0.059481 0.921024 -9.063670 0.949059 3.493462 -30.388943 0.044005 0.778824 -6.467860 0.000002 0.000001 0.000001 0.513516 2.990964 -13.093285 0.308923 2.043098 -17.193939 0.156995 1.464919 -12.234159 -0.000002 0.000001 -0.000001 0.098952 5.906397 -0.609028 0.390619 -1.773543 -19.782994 0.001588 0.148254 -1.228517 0.000001 -0.000001 0.000000 0.406337 -6.138453 6.671562 -14.399313 21.274105 71.461189 0.000024 69.185882 -0.000035 42.517518 -11.294969 -28.076080 2.993971 -10.502122 -7.003335 18.079439 -9.093506 6.140646 -8.366330 3.333155 -4.267472 -0.000001 -0.000004 -0.000002 0.784173 -3.323810 35.236932 0.277872 -1.949651 16.219900 0.000531 -0.086876 0.712868 -0.000001 0.000001 -0.000001 1.763961 -5.139166 26.808286 0.160816 -1.489725 12.321572 0.077306 -1.044667 8.603794 0.000002 0.000001 -0.000004 2.119456 -6.083360 24.839848 0.100700 -1.181504 9.743223 0.123393 -1.302454 10.753601 0.000002 0.000001 -0.000004 0.844014 -3.950850 15.669029 0.083966 -1.079466 8.894426 0.034603 -0.694267 5.706559 -0.000001 0.000001 -0.000001 -77.213888 -7.328965 9.526685 79.878174 -1.843876 1.794557 4.102701 -0.217827 -4.562068 -2.801642 -0.000001 0.000002 -0.000000 -0.000001 0.000001 -75.195882 -6.748215 -11.737664 80.678031 -2.999747 2.124437 -0.418007 0.329635 -1.851450 0.799670 0.000000 -0.000002 0.000000 0.000000 0.000001 
-27.555069 63.639893 12.049987 -7.655134 -0.978625 -5.572275 11.218313 0.125911 8.006280 1.771029 -0.045663 0.722087 1.772928 -0.051691 0.718367 2.407147 0.439489 1.680959 2.407147 0.439489 1.680954 -0.000001 -0.000000 -0.000000 0.457968 -1.242968 -2.853662 -13.565955 -11.879068 -73.610779 -0.000004 -57.362736 -0.000002 37.037958 -5.550506 39.381187 0.742702 7.030116 -1.212076 9.267219 26.580757 -3.310564 -2.650438 -6.206420 3.934739 -0.000004 0.000000 -0.000003 -0.543728 -0.624635 -17.886143 1.214832 3.910642 -34.503220 0.001191 -0.128383 1.063914 -0.000001 -0.000001 0.000001 0.063077 0.944531 -9.125403 0.948574 3.492616 -30.380852 0.043999 0.778835 -6.467717 -0.000001 -0.000002 0.000001 0.515081 2.989514 -13.166691 0.308087 2.040458 -17.171034 0.157014 1.464904 -12.234116 0.000002 0.000000 -0.000000 0.095991 5.861503 -0.589451 0.389615 -1.776251 -19.759082 0.001514 0.145069 -1.202188 0.000001 0.000001 -0.000001 0.406497 -6.125638 6.672183 -14.446974 21.361712 71.522374 0.000016 69.083006 -0.000016 42.648582 -11.327854 -27.959702 2.983435 -10.484211 -6.996527 18.063929 -9.065627 6.139923 -8.353391 3.304000 -4.267004 0.000000 -0.000000 -0.000006 0.771214 -3.297920 34.948302 0.280164 -1.957561 16.287906 0.000524 -0.086773 0.711980 0.000001 -0.000002 0.000001 1.738548 -5.102289 26.654692 0.161350 -1.492195 12.342492 0.076725 -1.046097 8.614651 -0.000003 -0.000001 0.000000 2.093774 -6.044920 24.724306 0.101140 -1.184023 9.764321 0.122928 -1.302834 10.755906 0.000002 0.000002 -0.000002 0.828856 -3.920310 15.499099 0.086454 -1.095283 9.025890 0.034344 -0.691672 5.685204 -0.000001 0.000001 0.000001 -76.936501 -7.180350 9.498333 79.836906 -1.786291 1.783211 4.091045 -0.217787 -4.555183 -2.782990 -0.000001 -0.000001 -0.000000 -0.000000 0.000001 -75.000928 -6.663953 -11.792496 80.702462 -2.966319 2.091514 -0.435533 0.332122 -1.885161 0.787444 0.000000 0.000003 0.000000 -0.000001 0.000000 
-27.552128 63.658134 12.036280 -7.889247 -0.997114 -5.435876 11.298488 0.118157 7.907016 1.774704 -0.046770 0.718488 1.776575 -0.052663 0.714727 2.462698 0.452563 1.669335 2.462697 0.452563 1.669336 0.000000 0.000000 -0.000001 0.459205 -1.254526 -2.876467 -13.579001 -11.950389 -73.658174 -0.000026 -57.325074 -0.000032 37.024225 -5.460721 39.382393 0.831270 7.150460 -1.170035 9.302411 26.668057 -3.335331 -2.610127 -6.050162 3.909754 -0.000004 -0.000000 -0.000001 -0.544598 -0.618498 -17.939919 1.203612 3.894326 -34.338452 0.001267 -0.131203 1.087141 -0.000002 -0.000001 0.000001 0.066375 0.966414 -9.213275 0.947568 3.490921 -30.364238 0.044005 0.778837 -6.467971 0.000001 -0.000002 -0.000001 0.515526 2.980255 -13.270490 0.307278 2.037807 -17.148018 0.157014 1.464917 -12.234154 0.000001 -0.000001 0.000000 0.106291 5.834879 -0.699891 0.388244 -1.780114 -19.724910 0.001493 0.143537 -1.189627 0.000004 -0.000000 0.000000 0.406783 -6.099008 6.671410 -14.546505 21.533911 71.617894 -0.000005 68.803644 -0.000018 42.685803 -11.236361 -28.035044 2.960515 -10.445115 -6.998979 18.026182 -8.989155 6.131988 -8.329819 3.243961 -4.267121 0.000000 0.000001 -0.000003 0.746118 -3.247858 34.410445 0.283153 -1.967725 16.374682 0.000529 -0.085950 0.705249 -0.000001 -0.000001 -0.000001 1.697802 -5.041409 26.419508 0.163007 -1.499628 12.404937 0.075932 -1.048114 8.630157 -0.000002 -0.000001 0.000000 2.049498 -5.974379 24.550220 0.101193 -1.184378 9.767216 0.122802 -1.302693 10.754534 0.000002 0.000002 -0.000005 0.794907 -3.844000 15.164005 0.089467 -1.114144 9.182788 0.034027 -0.688457 5.658664 -0.000001 0.000000 -0.000000 -76.638349 -7.053638 9.478990 79.805283 -1.908214 1.773867 4.121662 -0.213284 -4.638445 -2.851680 -0.000003 -0.000000 0.000000 -0.000001 0.000001 -74.788222 -6.580946 -11.827576 80.711000 -2.952997 2.045310 -0.447297 0.333829 -1.898819 0.753169 -0.000003 0.000001 0.000000 0.000000 0.000000 
